<!--?xml version="1.0" encoding="utf-8"?-->
<!-- Generator: Adobe Illustrator 19.1.1, SVG Export Plug-In . SVG Version: 6.00 Build 0)  -->
<svg version="1.1" id="_x31_0" xmlns="http://www.w3.org/2000/svg" xmlns:xlink="http://www.w3.org/1999/xlink" x="0px" y="0px" viewBox="0 0 512 512" style="width: 256px; height: 256px; opacity: 1;" xml:space="preserve">
<style type="text/css">
	.st0{fill:#374149;}
</style>
<g>
	<path class="st0" d="M178.603,184.442c17.153,4.301,39.379,8.102,65.898,8.961l5.024,8.781l2.582,4.438
		c0.18,0.317,0.406,0.633,0.68,0.86c1.718,1.855,4.75,1.855,6.473,0c0.27-0.227,0.496-0.543,0.675-0.86l2.535-4.39l5.07-8.828
		c26.614-0.859,48.79-4.66,65.902-8.914c6.336-16.613,20.367-55.175,23.446-79.98c-23.492-23.082-18.332-70.02-12.856-93.871
		c0,0-12.445-5.883-24.214-10.637c-19.778,14.301-35.621,30.461-63.817,30.461c-28.156,0-43.996-16.16-63.82-30.461
		c-11.722,4.754-24.172,10.637-24.172,10.637c5.477,23.851,10.637,70.789-12.855,93.871
		C158.236,129.266,172.221,167.832,178.603,184.442z" style="fill: rgb(255, 255, 255);"></path>
	<path class="st0" d="M406.041,317.602c-16.246-41.641-45.441-84.504-62.461-107.633c-2.336,0.614-4.851,1.211-7.371,1.805
		c-1.973,0.465-3.969,0.902-5.976,1.328c-4.074,0.875-8.364,1.699-12.852,2.473c-5.797,0.965-11.617,1.902-17.594,2.515
		c0.031,0.031,0.066,0.059,0.098,0.086c-0.07,0.011-0.137,0.023-0.207,0.031c7.738,7.242,19.371,17.062,33.45,25.39l3.074,1.813
		l-3.586,14.382l-1.023,3.922l-7.657-4.547c-12.742-7.59-23.441-16.019-31.586-23.242c-0.961-0.886-1.871-1.746-2.703-2.558
		c0.023,0.078,0.054,0.172,0.082,0.254c-0.074-0.066-0.164-0.14-0.234-0.206c7.058,22.992,20.277,59.609,41.504,97.222v0.046
		l-8.051,16.067l-4.082,7.976l-0.497-0.781c-34.894-57.528-51.234-114.332-56.031-133.25c-2.082,0.09-4.21,0.09-6.336,0.09
		c-2.129,0-4.21,0-6.293-0.09c-4.801,18.918-21.137,75.722-56.035,133.25l-0.398,0.668l-0.172,0.183l-12.058-24.114
		c17.027-30.179,28.793-59.534,36.457-81.866c1.922-5.477,3.68-10.68,5.157-15.286c-0.058,0.054-0.141,0.121-0.199,0.176
		c0.027-0.09,0.062-0.203,0.094-0.293c-8.375,7.695-20.187,17.289-34.446,25.754l-6.078,3.61l-1.63,0.922l-4.558-18.289l3.078-1.813
		c11.859-7.015,21.828-15.008,29.351-21.711c1.36-1.171,2.738-2.316,4.074-3.523c-0.043-0.004-0.086-0.012-0.133-0.019
		c0.047-0.043,0.11-0.094,0.156-0.137c-3.531-0.426-6.906-0.914-10.242-1.414c-1.223-0.183-2.45-0.367-3.664-0.562
		c-5.434-0.875-10.535-1.847-15.41-2.875c-3.562-0.758-7.114-1.531-10.558-2.402c-1.336-0.332-2.75-0.648-4.031-0.984
		c-17.016,23.129-46.211,65.992-62.462,107.633C64.588,423.965,56.85,472.035,56.85,472.035
		C101.974,490.726,165.432,512,256.002,512c90.614,0,154.07-21.274,199.149-39.965C455.15,472.035,447.455,423.965,406.041,317.602z
		" style="fill: rgb(255, 255, 255);"></path>
</g>
</svg>
